<svg width="102" height="92" viewBox="0 0 102 92" fill="none" xmlns="http://www.w3.org/2000/svg">
<path d="M70.0415 23.8128C82.0023 30.5821 96.3632 40.6034 96.0431 50.3672C95.6877 60.2113 80.7091 69.7753 64.9005 75.6745C49.0117 81.5386 32.2477 83.6224 21.9981 76.1193C11.8287 68.6513 8.15106 51.5388 12.0791 38.9054C15.9494 26.2946 27.2873 18.1504 37.8345 15.832C48.3818 13.5135 58.0228 17.066 70.0415 23.8128Z" fill="#F39500"/>
<path d="M70.0909 17C72.7821 17 75 19.2179 75 21.9091V57.9091C75 60.6003 72.7821 62.8182 70.0909 62.8182H39.9091C37.2179 62.8182 35 60.6003 35 57.9091V26.8182C35 26.3843 35.1724 25.9682 35.4796 25.6614L43.6614 17.4796C43.9682 17.1724 44.3843 17 44.8182 17L70.0909 17ZM70.0909 20.2727H48.0909V25.1818C48.0909 27.873 45.873 30.0909 43.1818 30.0909H38.2727V57.9091C38.2727 58.8438 38.9744 59.5455 39.9091 59.5455H70.0909C71.0256 59.5455 71.7273 58.8438 71.7273 57.9091V21.9091C71.7273 20.9744 71.0256 20.2727 70.0909 20.2727ZM44.8182 20.9503L38.9503 26.8182H43.1818C44.1165 26.8182 44.8182 26.1165 44.8182 25.1818V20.9503Z" fill="white"/>
<path d="M55.9999 31.7273C56.9036 31.7273 57.6363 32.46 57.6363 33.3637V47.413L61.3886 43.6607C62.0833 43.0021 63.0012 43.0825 63.7025 43.6607C64.3413 44.2995 64.3413 45.3358 63.7025 45.9746L57.1571 52.5201C56.5179 53.1589 55.4824 53.1589 54.8431 52.5201L48.2977 45.9746C47.6589 45.3358 47.6589 44.2995 48.2977 43.6607C48.9365 43.0219 49.9728 43.0219 50.6116 43.6607L54.3636 47.413V33.3637C54.3636 32.46 55.0963 31.7273 55.9999 31.7273Z" fill="white"/>
</svg>
