<svg width="96" height="86" viewBox="0 0 96 86" fill="none" xmlns="http://www.w3.org/2000/svg">
<path d="M91.4632 42.0918C92.2431 51.5404 75.1009 65.8584 56.2036 67.97C37.393 70.0586 16.7407 59.9639 11.4797 45.9528C6.187 31.9967 16.2539 14.1791 25.7019 9.75762C35.2048 5.36793 44.1204 14.3195 57.9959 21.16C71.8163 27.9687 90.6283 32.6115 91.4632 42.0918Z" fill="#EB6502"/>
<path d="M37.3399 48.8125H67.0625V17.3125H37.2578C35.9393 17.3167 34.6759 17.8424 33.7435 18.7748C32.8112 19.7072 32.2855 20.9705 32.2812 22.2891V51.2939H32.2822C32.2822 51.3063 32.2812 51.3186 32.2812 51.3311C32.2812 54.235 34.5602 56.6877 37.2578 56.6877H67.0625V54.0625H37.2578C36.0271 54.0625 34.9062 52.7606 34.9062 51.3309C34.9062 49.9659 36.0206 48.8125 37.3399 48.8125ZM58.5312 19.9648V34.1411L54.5609 30.6556L50.6562 34.1207V19.9648H58.5312ZM48.0312 19.9375V37.6562H50.6268L54.5705 34.1569L58.5563 37.6562H61.1562V19.9375H64.4375V46.1875H40.1628L40.1562 19.9375H48.0312ZM37.2578 19.9375H37.5312L37.5375 46.1875H37.3395C36.486 46.1877 35.6473 46.4106 34.9062 46.8342V22.3096C34.9042 21.6834 35.1507 21.082 35.5916 20.6373C36.0324 20.1926 36.6317 19.9409 37.2578 19.9375Z" fill="white"/>
</svg>
