<svg width="83" height="51" viewBox="0 0 83 51" fill="none" xmlns="http://www.w3.org/2000/svg">
<path d="M81.2718 7.83546C80.3167 4.75585 77.497 2.31945 73.9268 1.50082C67.446 9.29412e-07 41.5 0 41.5 0C41.5 0 15.554 9.29412e-07 9.07315 1.50082C5.50301 2.31945 2.68329 4.75585 1.72822 7.83546C-3.25294e-07 13.4099 0 25.0657 0 25.0657C0 25.0657 -3.25294e-07 36.7214 1.72822 42.2959C2.68329 45.3755 5.50301 47.8119 9.07315 48.6305C15.554 50.1313 41.5 50.1313 41.5 50.1313C41.5 50.1313 67.446 50.1313 73.9268 48.6305C77.497 47.8119 80.3167 45.3755 81.2718 42.2959C83 36.7214 83 25.0657 83 25.0657C83 25.0657 83 13.4099 81.2718 7.83546Z" fill="#FF0000"/>
<path d="M33.0186 35.6493L54.7122 25.0656L33.0186 14.4819V35.6493Z" fill="white"/>
</svg>
